<svg version="1.1" id="Layer_1" xmlns="http://www.w3.org/2000/svg" xmlns:xlink="http://www.w3.org/1999/xlink" x="0px" y="0px"
	 width="100%" viewBox="0 0 1080 1080" enable-background="new 0 0 1080 1080" xml:space="preserve">
<path fill="#000000" opacity="1.000000" stroke="none" 
	d="
M469.000000,1081.000000 
	C312.684662,1081.000000 156.869293,1081.000000 1.026973,1081.000000 
	C1.026973,721.059509 1.026973,361.119049 1.026973,1.089287 
	C360.898895,1.089287 720.797852,1.089287 1080.848389,1.089287 
	C1080.848389,360.999939 1080.848389,720.999939 1080.848389,1081.000000 
	C877.118591,1081.000000 673.309265,1081.000000 469.000000,1081.000000 
M449.535767,353.048187 
	C450.256805,354.343292 451.222900,355.560822 451.661133,356.945465 
	C456.335999,371.715576 460.949005,386.505432 465.537415,401.302704 
	C481.473297,452.694580 497.400909,504.089050 513.315369,555.487549 
	C523.021729,586.835999 532.665771,618.203735 542.398010,649.544128 
	C550.844971,676.745544 559.417603,703.908081 567.824036,731.121948 
	C569.000671,734.930969 570.775696,737.069763 575.130981,737.036255 
	C593.460449,736.894897 611.791687,736.928955 630.121826,737.009766 
	C634.104309,737.027344 635.977966,735.260193 637.188721,731.496094 
	C653.563232,680.587585 670.073547,629.722839 686.554138,578.848450 
	C698.054688,543.347290 709.570618,507.851196 721.055603,472.345032 
	C722.871887,466.729889 724.560669,461.073486 726.534546,454.706879 
	C727.211243,456.165375 727.633545,456.861237 727.869263,457.615387 
	C731.795593,470.175232 735.612427,482.769958 739.623535,495.302551 
	C749.525757,526.242188 759.548584,557.143250 769.460999,588.079651 
	C784.709717,635.670959 799.936707,683.269409 815.074280,730.896118 
	C816.439026,735.189941 818.756287,737.089355 823.360718,737.048279 
	C841.023315,736.890625 858.689209,736.879517 876.351379,737.058960 
	C881.144653,737.107666 883.584351,735.233154 884.984558,730.689514 
	C897.396606,690.414246 909.961121,650.186096 922.466003,609.939392 
	C940.457092,552.035522 958.433105,494.126953 976.421448,436.222107 
	C984.526062,410.133240 992.687012,384.061707 1000.726257,357.952667 
	C1002.688354,351.580597 1002.183228,351.026184 995.611694,351.014404 
	C978.947571,350.984558 962.283142,350.951141 945.619263,351.026398 
	C933.014099,351.083344 924.489807,357.674255 921.076538,369.672333 
	C905.623535,423.991608 889.893982,478.233948 874.783813,532.648376 
	C865.920227,564.567932 858.035095,596.759155 849.680969,628.820618 
	C849.513672,629.462463 848.990051,630.011414 848.390747,631.004700 
	C847.898254,629.800415 847.603516,629.207458 847.408264,628.583557 
	C834.178589,586.304810 821.043213,543.996338 807.695496,501.754944 
	C801.672058,482.692474 795.216309,463.766754 788.975403,444.772827 
	C780.602783,419.291077 772.457642,393.731964 763.793579,368.349792 
	C759.745239,356.489777 751.168213,351.075439 738.546692,351.009674 
	C732.381104,350.977570 726.215149,350.984375 720.049500,351.006165 
	C705.909546,351.056122 697.320984,357.110718 692.678772,370.636841 
	C689.488831,379.931763 686.659546,389.349823 683.594971,398.688538 
	C668.426941,444.910156 653.054749,491.065765 638.113159,537.360352 
	C628.087463,568.423401 618.660706,599.679749 608.944153,630.842773 
	C608.873108,631.070679 608.495728,631.203003 608.010986,631.568970 
	C607.642212,630.403442 607.220764,629.357117 606.981445,628.270630 
	C604.688293,617.861938 602.932678,607.304871 600.068359,597.057190 
	C586.569702,548.763855 572.766602,500.555664 559.078430,452.315338 
	C551.256653,424.749512 543.489075,397.168213 535.611511,369.618347 
	C532.403137,358.397705 524.812378,351.413574 513.973694,351.245056 
	C492.323608,350.908447 470.661987,351.311890 448.076080,351.238647 
	C429.917297,351.159546 411.758545,351.037537 393.599670,351.014435 
	C378.145294,350.994812 371.435822,355.478180 365.902466,369.830811 
	C342.533630,430.445374 319.110107,491.039398 295.974945,551.743225 
	C284.950104,580.671021 272.274811,609.034058 265.056366,639.313477 
	C264.012756,643.691162 262.888489,648.049622 261.525146,653.527588 
	C257.954163,641.220337 255.353745,629.980225 251.436661,619.219360 
	C242.550308,594.807068 233.071075,570.609436 223.732178,546.363342 
	C208.884048,507.813782 193.951447,469.296814 179.059052,430.764282 
	C171.253113,410.567230 163.477142,390.358490 155.648758,370.170135 
	C150.495178,356.879730 141.348541,350.187286 126.492340,350.845428 
	C110.859238,351.537964 95.171715,350.979523 79.508072,351.015137 
	C72.328995,351.031433 71.881683,351.707520 74.640602,358.518219 
	C93.966820,406.227081 113.333282,453.919647 132.657837,501.629181 
	C149.856644,544.090637 167.019943,586.566406 184.195358,629.037292 
	C197.935425,663.013306 211.721283,696.971008 225.340775,730.995300 
	C226.990494,735.116577 229.290314,737.076782 233.839233,737.040344 
	C251.834641,736.896423 269.832428,736.905396 287.828033,737.035339 
	C291.993896,737.065369 294.241974,735.264587 295.651794,731.524719 
	C297.706696,726.073486 300.082550,720.744263 302.267609,715.341125 
	C335.432098,633.332214 368.584778,551.318481 401.746918,469.308594 
	C417.484009,430.390900 433.235107,391.478851 449.535767,353.048187 
z"/>
<path fill="#171717" opacity="1.000000" stroke="none" 
	d="
M449.005127,351.409668 
	C470.661987,351.311890 492.323608,350.908447 513.973694,351.245056 
	C524.812378,351.413574 532.403137,358.397705 535.611511,369.618347 
	C543.489075,397.168213 551.256653,424.749512 559.078430,452.315338 
	C572.766602,500.555664 586.569702,548.763855 600.068359,597.057190 
	C602.932678,607.304871 604.688293,617.861938 606.981445,628.270630 
	C607.220764,629.357117 607.642212,630.403442 608.010986,631.568970 
	C608.495728,631.203003 608.873108,631.070679 608.944153,630.842773 
	C618.660706,599.679749 628.087463,568.423401 638.113159,537.360352 
	C653.054749,491.065765 668.426941,444.910156 683.594971,398.688538 
	C686.659546,389.349823 689.488831,379.931763 692.678772,370.636841 
	C697.320984,357.110718 705.909546,351.056122 720.049500,351.006165 
	C726.215149,350.984375 732.381104,350.977570 738.546692,351.009674 
	C751.168213,351.075439 759.745239,356.489777 763.793579,368.349792 
	C772.457642,393.731964 780.602783,419.291077 788.975403,444.772827 
	C795.216309,463.766754 801.672058,482.692474 807.695496,501.754944 
	C821.043213,543.996338 834.178589,586.304810 847.408264,628.583557 
	C847.603516,629.207458 847.898254,629.800415 848.390747,631.004700 
	C848.990051,630.011414 849.513672,629.462463 849.680969,628.820618 
	C858.035095,596.759155 865.920227,564.567932 874.783813,532.648376 
	C889.893982,478.233948 905.623535,423.991608 921.076538,369.672333 
	C924.489807,357.674255 933.014099,351.083344 945.619263,351.026398 
	C962.283142,350.951141 978.947571,350.984558 995.611694,351.014404 
	C1002.183228,351.026184 1002.688354,351.580597 1000.726257,357.952667 
	C992.687012,384.061707 984.526062,410.133240 976.421448,436.222107 
	C958.433105,494.126953 940.457092,552.035522 922.466003,609.939392 
	C909.961121,650.186096 897.396606,690.414246 884.984558,730.689514 
	C883.584351,735.233154 881.144653,737.107666 876.351379,737.058960 
	C858.689209,736.879517 841.023315,736.890625 823.360718,737.048279 
	C818.756287,737.089355 816.439026,735.189941 815.074280,730.896118 
	C799.936707,683.269409 784.709717,635.670959 769.460999,588.079651 
	C759.548584,557.143250 749.525757,526.242188 739.623535,495.302551 
	C735.612427,482.769958 731.795593,470.175232 727.869263,457.615387 
	C727.633545,456.861237 727.211243,456.165375 726.534546,454.706879 
	C724.560669,461.073486 722.871887,466.729889 721.055603,472.345032 
	C709.570618,507.851196 698.054688,543.347290 686.554138,578.848450 
	C670.073547,629.722839 653.563232,680.587585 637.188721,731.496094 
	C635.977966,735.260193 634.104309,737.027344 630.121826,737.009766 
	C611.791687,736.928955 593.460449,736.894897 575.130981,737.036255 
	C570.775696,737.069763 569.000671,734.930969 567.824036,731.121948 
	C559.417603,703.908081 550.844971,676.745544 542.398010,649.544128 
	C532.665771,618.203735 523.021729,586.835999 513.315369,555.487549 
	C497.400909,504.089050 481.473297,452.694580 465.537415,401.302704 
	C460.949005,386.505432 456.335999,371.715576 451.661133,356.945465 
	C451.222900,355.560822 450.256805,354.343292 449.262817,352.615906 
	C448.995117,351.925659 449.000214,351.667664 449.005127,351.409668 
z"/>
<path fill="#171717" opacity="1.000000" stroke="none" 
	d="
M448.540588,351.324158 
	C449.000214,351.667664 448.995117,351.925659 448.984863,352.373962 
	C433.235107,391.478851 417.484009,430.390900 401.746918,469.308594 
	C368.584778,551.318481 335.432098,633.332214 302.267609,715.341125 
	C300.082550,720.744263 297.706696,726.073486 295.651794,731.524719 
	C294.241974,735.264587 291.993896,737.065369 287.828033,737.035339 
	C269.832428,736.905396 251.834641,736.896423 233.839233,737.040344 
	C229.290314,737.076782 226.990494,735.116577 225.340775,730.995300 
	C211.721283,696.971008 197.935425,663.013306 184.195358,629.037292 
	C167.019943,586.566406 149.856644,544.090637 132.657837,501.629181 
	C113.333282,453.919647 93.966820,406.227081 74.640602,358.518219 
	C71.881683,351.707520 72.328995,351.031433 79.508072,351.015137 
	C95.171715,350.979523 110.859238,351.537964 126.492340,350.845428 
	C141.348541,350.187286 150.495178,356.879730 155.648758,370.170135 
	C163.477142,390.358490 171.253113,410.567230 179.059052,430.764282 
	C193.951447,469.296814 208.884048,507.813782 223.732178,546.363342 
	C233.071075,570.609436 242.550308,594.807068 251.436661,619.219360 
	C255.353745,629.980225 257.954163,641.220337 261.525146,653.527588 
	C262.888489,648.049622 264.012756,643.691162 265.056366,639.313477 
	C272.274811,609.034058 284.950104,580.671021 295.974945,551.743225 
	C319.110107,491.039398 342.533630,430.445374 365.902466,369.830811 
	C371.435822,355.478180 378.145294,350.994812 393.599670,351.014435 
	C411.758545,351.037537 429.917297,351.159546 448.540588,351.324158 
z"/>
</svg>